# xmcd
#
# Track frame offsets:
#	150
#	16352
#	34300
#	49665
#	67015
#	83502
#	97807
#	112629
#	130815
#	148687
#	165642
#	181847
#	199795
#	215160
#	232510
#	248997
#	263300
#	278122
#	296310
#	314180
#
# Disc length: 4415 seconds
#
# Revision: 3
# Processed by: cddbd v1.5.2PL0 Copyright (c) Steve Scherf et al.
# Submitted via: audiograbber 1.83.01
#
DISCID=10113d14
DTITLE=Various Artist - THC0407
DYEAR=2005
DGENRE=Country
TTITLE0=Wilson, Gretchen - Redneck Woman (Vocal)
TTITLE1=Brad Paisley and Krause, Alison - Whiskey Lullaby (Vocal)
TTITLE2=Willmon, Trent - Beer Man (Vocal)
TTITLE3=Gracin, Josh - I Want To Live (Vocal)
TTITLE4=Gill, Vince - In These Last Few Days (Vocal)
TTITLE5=Currington, Billy - I Got A Feelin' (Vocal)
TTITLE6=Bates, Jeff - I Wanna Make You Cry (Vocal)
TTITLE7=McBride, Martina - How Far (Vocal)
TTITLE8=Keith, Toby - Whiskey Girl (Vocal)
TTITLE9=Proctor, Rachel - Me And Emily (Vocal)
TTITLE10=Wilson, Gretchen - Redneck Woman
TTITLE11=Brad Paisley and Krause, Alison - Whiskey Lullaby
TTITLE12=Willmon, Trent - Beer Man
TTITLE13=Gracin, Josh - I Want To Live
TTITLE14=Gill, Vince - In These Last Few Days
TTITLE15=Currington, Billy - I Got A Feelin'
TTITLE16=Bates, Jeff - I Wanna Make You Cry
TTITLE17=McBride, Martina - How Far
TTITLE18=Keith, Toby - Whiskey Girl
TTITLE19=Proctor, Rachel - Me And Emily
EXTD=
EXTT0=
EXTT1=
EXTT2=
EXTT3=
EXTT4=
EXTT5=
EXTT6=
EXTT7=
EXTT8=
EXTT9=
EXTT10=
EXTT11=
EXTT12=
EXTT13=
EXTT14=
EXTT15=
EXTT16=
EXTT17=
EXTT18=
EXTT19=
PLAYORDER=
